<?xml version="1.0" encoding="UTF-8" standalone="no"?>
<!DOCTYPE svg PUBLIC "-//W3C//DTD SVG 1.1//EN"
 "http://www.w3.org/Graphics/SVG/1.1/DTD/svg11.dtd">
<!-- Generated by graphviz version 14.1.2 (20260124.0452)
 -->
<!-- Pages: 1 -->
<svg width="1340pt" height="237pt"
 viewBox="0.00 0.00 1340.00 237.00" xmlns="http://www.w3.org/2000/svg" xmlns:xlink="http://www.w3.org/1999/xlink">
<g id="graph0" class="graph" transform="scale(1 1) rotate(0) translate(4 233)">
<polygon fill="white" stroke="none" points="-4,4 -4,-233 1335.5,-233 1335.5,4 -4,4"/>
<!-- 4466290720 -->
<g id="node1" class="node">
<title>4466290720</title>
<polygon fill="none" stroke="black" points="291.5,-27.5 291.5,-63.5 457,-63.5 457,-27.5 291.5,-27.5"/>
<text xml:space="preserve" text-anchor="middle" x="333.62" y="-40.7" font-family="Times,serif" font-size="14.00">data &#45;0.9229</text>
<polyline fill="none" stroke="black" points="375.75,-28 375.75,-63.5"/>
<text xml:space="preserve" text-anchor="middle" x="416.38" y="-40.7" font-family="Times,serif" font-size="14.00">grad 0.0311</text>
</g>
<!-- 4468753584add -->
<g id="node9" class="node">
<title>4468753584add</title>
<ellipse fill="none" stroke="black" cx="520" cy="-100.5" rx="27" ry="18"/>
<text xml:space="preserve" text-anchor="middle" x="520" y="-95.45" font-family="Times,serif" font-size="14.00">add</text>
</g>
<!-- 4466290720&#45;&gt;4468753584add -->
<g id="edge9" class="edge">
<title>4466290720&#45;&gt;4468753584add</title>
<path fill="none" stroke="black" d="M430.88,-63.88C439.66,-66.97 448.61,-70.24 457,-73.5 466.78,-77.3 477.29,-81.73 486.82,-85.9"/>
<polygon fill="black" stroke="black" points="485.14,-88.98 495.7,-89.83 487.97,-82.58 485.14,-88.98"/>
</g>
<!-- 4466290720mul -->
<g id="node2" class="node">
<title>4466290720mul</title>
<ellipse fill="none" stroke="black" cx="228.5" cy="-45.5" rx="27" ry="18"/>
<text xml:space="preserve" text-anchor="middle" x="228.5" y="-40.45" font-family="Times,serif" font-size="14.00">mul</text>
</g>
<!-- 4466290720mul&#45;&gt;4466290720 -->
<g id="edge1" class="edge">
<title>4466290720mul&#45;&gt;4466290720</title>
<path fill="none" stroke="black" d="M255.87,-45.5C262.97,-45.5 271.07,-45.5 279.64,-45.5"/>
<polygon fill="black" stroke="black" points="279.59,-49 289.59,-45.5 279.59,-42 279.59,-49"/>
</g>
<!-- 4466512976 -->
<g id="node3" class="node">
<title>4466512976</title>
<polygon fill="none" stroke="black" points="291.5,-82.5 291.5,-118.5 457,-118.5 457,-82.5 291.5,-82.5"/>
<text xml:space="preserve" text-anchor="middle" x="333.62" y="-95.7" font-family="Times,serif" font-size="14.00">data &#45;0.7121</text>
<polyline fill="none" stroke="black" points="375.75,-83 375.75,-118.5"/>
<text xml:space="preserve" text-anchor="middle" x="416.38" y="-95.7" font-family="Times,serif" font-size="14.00">grad 0.0311</text>
</g>
<!-- 4466512976&#45;&gt;4468753584add -->
<g id="edge14" class="edge">
<title>4466512976&#45;&gt;4468753584add</title>
<path fill="none" stroke="black" d="M457.2,-100.5C465.64,-100.5 473.9,-100.5 481.48,-100.5"/>
<polygon fill="black" stroke="black" points="481.27,-104 491.27,-100.5 481.27,-97 481.27,-104"/>
</g>
<!-- 4468756048 -->
<g id="node4" class="node">
<title>4468756048</title>
<polygon fill="none" stroke="black" points="583,-137.5 583,-173.5 748.5,-173.5 748.5,-137.5 583,-137.5"/>
<text xml:space="preserve" text-anchor="middle" x="625.12" y="-150.7" font-family="Times,serif" font-size="14.00">data &#45;0.7849</text>
<polyline fill="none" stroke="black" points="667.25,-138 667.25,-173.5"/>
<text xml:space="preserve" text-anchor="middle" x="707.88" y="-150.7" font-family="Times,serif" font-size="14.00">grad 0.0311</text>
</g>
<!-- 4468669136add -->
<g id="node11" class="node">
<title>4468669136add</title>
<ellipse fill="none" stroke="black" cx="811.5" cy="-127.5" rx="27" ry="18"/>
<text xml:space="preserve" text-anchor="middle" x="811.5" y="-122.45" font-family="Times,serif" font-size="14.00">add</text>
</g>
<!-- 4468756048&#45;&gt;4468669136add -->
<g id="edge12" class="edge">
<title>4468756048&#45;&gt;4468669136add</title>
<path fill="none" stroke="black" d="M748.7,-139.54C757.5,-137.82 766.08,-136.15 773.92,-134.62"/>
<polygon fill="black" stroke="black" points="774.55,-138.07 783.7,-132.72 773.21,-131.2 774.55,-138.07"/>
</g>
<!-- 4468756048mul -->
<g id="node5" class="node">
<title>4468756048mul</title>
<ellipse fill="none" stroke="black" cx="520" cy="-155.5" rx="27" ry="18"/>
<text xml:space="preserve" text-anchor="middle" x="520" y="-150.45" font-family="Times,serif" font-size="14.00">mul</text>
</g>
<!-- 4468756048mul&#45;&gt;4468756048 -->
<g id="edge2" class="edge">
<title>4468756048mul&#45;&gt;4468756048</title>
<path fill="none" stroke="black" d="M547.37,-155.5C554.47,-155.5 562.57,-155.5 571.14,-155.5"/>
<polygon fill="black" stroke="black" points="571.09,-159 581.09,-155.5 571.09,-152 571.09,-159"/>
</g>
<!-- 4468335728 -->
<g id="node6" class="node">
<title>4468335728</title>
<polygon fill="none" stroke="black" points="0,-55.5 0,-91.5 165.5,-91.5 165.5,-55.5 0,-55.5"/>
<text xml:space="preserve" text-anchor="middle" x="42.12" y="-68.7" font-family="Times,serif" font-size="14.00">data &#45;0.9229</text>
<polyline fill="none" stroke="black" points="84.25,-56 84.25,-91.5"/>
<text xml:space="preserve" text-anchor="middle" x="124.88" y="-68.7" font-family="Times,serif" font-size="14.00">grad 0.0311</text>
</g>
<!-- 4468335728&#45;&gt;4466290720mul -->
<g id="edge7" class="edge">
<title>4468335728&#45;&gt;4466290720mul</title>
<path fill="none" stroke="black" d="M165.7,-57.54C174.5,-55.82 183.08,-54.15 190.92,-52.62"/>
<polygon fill="black" stroke="black" points="191.55,-56.07 200.7,-50.72 190.21,-49.2 191.55,-56.07"/>
</g>
<!-- 4468336272 -->
<g id="node7" class="node">
<title>4468336272</title>
<polygon fill="none" stroke="black" points="291.5,-192.5 291.5,-228.5 457,-228.5 457,-192.5 291.5,-192.5"/>
<text xml:space="preserve" text-anchor="middle" x="331.38" y="-205.7" font-family="Times,serif" font-size="14.00">data 0.3924</text>
<polyline fill="none" stroke="black" points="371.25,-193 371.25,-228.5"/>
<text xml:space="preserve" text-anchor="middle" x="414.12" y="-205.7" font-family="Times,serif" font-size="14.00">grad &#45;0.0623</text>
</g>
<!-- 4468336272&#45;&gt;4468756048mul -->
<g id="edge13" class="edge">
<title>4468336272&#45;&gt;4468756048mul</title>
<path fill="none" stroke="black" d="M433.58,-192.07C441.49,-189.33 449.48,-186.43 457,-183.5 466.91,-179.64 477.53,-175.02 487.12,-170.67"/>
<polygon fill="black" stroke="black" points="488.44,-173.92 496.06,-166.55 485.51,-167.56 488.44,-173.92"/>
</g>
<!-- 4468753584 -->
<g id="node8" class="node">
<title>4468753584</title>
<polygon fill="none" stroke="black" points="583,-82.5 583,-118.5 748.5,-118.5 748.5,-82.5 583,-82.5"/>
<text xml:space="preserve" text-anchor="middle" x="625.12" y="-95.7" font-family="Times,serif" font-size="14.00">data &#45;1.6350</text>
<polyline fill="none" stroke="black" points="667.25,-83 667.25,-118.5"/>
<text xml:space="preserve" text-anchor="middle" x="707.88" y="-95.7" font-family="Times,serif" font-size="14.00">grad 0.0311</text>
</g>
<!-- 4468753584&#45;&gt;4468669136add -->
<g id="edge11" class="edge">
<title>4468753584&#45;&gt;4468669136add</title>
<path fill="none" stroke="black" d="M748.7,-115.89C757.5,-117.54 766.08,-119.16 773.92,-120.63"/>
<polygon fill="black" stroke="black" points="773.22,-124.06 783.7,-122.47 774.51,-117.18 773.22,-124.06"/>
</g>
<!-- 4468753584add&#45;&gt;4468753584 -->
<g id="edge3" class="edge">
<title>4468753584add&#45;&gt;4468753584</title>
<path fill="none" stroke="black" d="M547.37,-100.5C554.47,-100.5 562.57,-100.5 571.14,-100.5"/>
<polygon fill="black" stroke="black" points="571.09,-104 581.09,-100.5 571.09,-97 571.09,-104"/>
</g>
<!-- 4468669136 -->
<g id="node10" class="node">
<title>4468669136</title>
<polygon fill="none" stroke="black" points="874.5,-109.5 874.5,-145.5 1040,-145.5 1040,-109.5 874.5,-109.5"/>
<text xml:space="preserve" text-anchor="middle" x="916.62" y="-122.7" font-family="Times,serif" font-size="14.00">data &#45;2.4199</text>
<polyline fill="none" stroke="black" points="958.75,-110 958.75,-145.5"/>
<text xml:space="preserve" text-anchor="middle" x="999.38" y="-122.7" font-family="Times,serif" font-size="14.00">grad 0.0311</text>
</g>
<!-- 4466237200tanh -->
<g id="node13" class="node">
<title>4466237200tanh</title>
<ellipse fill="none" stroke="black" cx="1103" cy="-127.5" rx="27" ry="18"/>
<text xml:space="preserve" text-anchor="middle" x="1103" y="-122.45" font-family="Times,serif" font-size="14.00">tanh</text>
</g>
<!-- 4468669136&#45;&gt;4466237200tanh -->
<g id="edge8" class="edge">
<title>4468669136&#45;&gt;4466237200tanh</title>
<path fill="none" stroke="black" d="M1040.2,-127.5C1048.64,-127.5 1056.9,-127.5 1064.48,-127.5"/>
<polygon fill="black" stroke="black" points="1064.27,-131 1074.27,-127.5 1064.27,-124 1064.27,-131"/>
</g>
<!-- 4468669136add&#45;&gt;4468669136 -->
<g id="edge4" class="edge">
<title>4468669136add&#45;&gt;4468669136</title>
<path fill="none" stroke="black" d="M838.87,-127.5C845.97,-127.5 854.07,-127.5 862.64,-127.5"/>
<polygon fill="black" stroke="black" points="862.59,-131 872.59,-127.5 862.59,-124 862.59,-131"/>
</g>
<!-- 4466237200 -->
<g id="node12" class="node">
<title>4466237200</title>
<polygon fill="none" stroke="black" points="1166,-109.5 1166,-145.5 1331.5,-145.5 1331.5,-109.5 1166,-109.5"/>
<text xml:space="preserve" text-anchor="middle" x="1208.12" y="-122.7" font-family="Times,serif" font-size="14.00">data &#45;0.9843</text>
<polyline fill="none" stroke="black" points="1250.25,-110 1250.25,-145.5"/>
<text xml:space="preserve" text-anchor="middle" x="1290.88" y="-122.7" font-family="Times,serif" font-size="14.00">grad 1.0000</text>
</g>
<!-- 4466237200tanh&#45;&gt;4466237200 -->
<g id="edge5" class="edge">
<title>4466237200tanh&#45;&gt;4466237200</title>
<path fill="none" stroke="black" d="M1130.37,-127.5C1137.47,-127.5 1145.57,-127.5 1154.14,-127.5"/>
<polygon fill="black" stroke="black" points="1154.09,-131 1164.09,-127.5 1154.09,-124 1154.09,-131"/>
</g>
<!-- 4466516304 -->
<g id="node14" class="node">
<title>4466516304</title>
<polygon fill="none" stroke="black" points="0,-0.5 0,-36.5 165.5,-36.5 165.5,-0.5 0,-0.5"/>
<text xml:space="preserve" text-anchor="middle" x="39.88" y="-13.7" font-family="Times,serif" font-size="14.00">data 1.0000</text>
<polyline fill="none" stroke="black" points="79.75,-1 79.75,-36.5"/>
<text xml:space="preserve" text-anchor="middle" x="122.62" y="-13.7" font-family="Times,serif" font-size="14.00">grad &#45;0.0287</text>
</g>
<!-- 4466516304&#45;&gt;4466290720mul -->
<g id="edge10" class="edge">
<title>4466516304&#45;&gt;4466290720mul</title>
<path fill="none" stroke="black" d="M165.7,-33.89C174.5,-35.54 183.08,-37.16 190.92,-38.63"/>
<polygon fill="black" stroke="black" points="190.22,-42.06 200.7,-40.47 191.51,-35.18 190.22,-42.06"/>
</g>
<!-- 4468623792 -->
<g id="node15" class="node">
<title>4468623792</title>
<polygon fill="none" stroke="black" points="291.5,-137.5 291.5,-173.5 457,-173.5 457,-137.5 291.5,-137.5"/>
<text xml:space="preserve" text-anchor="middle" x="333.62" y="-150.7" font-family="Times,serif" font-size="14.00">data &#45;2.0000</text>
<polyline fill="none" stroke="black" points="375.75,-138 375.75,-173.5"/>
<text xml:space="preserve" text-anchor="middle" x="416.38" y="-150.7" font-family="Times,serif" font-size="14.00">grad 0.0122</text>
</g>
<!-- 4468623792&#45;&gt;4468756048mul -->
<g id="edge6" class="edge">
<title>4468623792&#45;&gt;4468756048mul</title>
<path fill="none" stroke="black" d="M457.2,-155.5C465.64,-155.5 473.9,-155.5 481.48,-155.5"/>
<polygon fill="black" stroke="black" points="481.27,-159 491.27,-155.5 481.27,-152 481.27,-159"/>
</g>
</g>
</svg>
